<?xml version="1.0" encoding="UTF-8" standalone="no"?>
<!-- Created with Inkscape (http://www.inkscape.org/) -->

<svg
   width="1024"
   height="1024"
   viewBox="0 0 270.93333 270.93333"
   version="1.1"
   id="svg1"
   inkscape:version="1.4 (e7c3feb1, 2024-10-09)"
   sodipodi:docname="lens-logo.svg"
   xmlns:inkscape="http://www.inkscape.org/namespaces/inkscape"
   xmlns:sodipodi="http://sodipodi.sourceforge.net/DTD/sodipodi-0.dtd"
   xmlns="http://www.w3.org/2000/svg"
   xmlns:svg="http://www.w3.org/2000/svg">
  <sodipodi:namedview
     id="namedview1"
     pagecolor="#ffffff"
     bordercolor="#000000"
     borderopacity="0.25"
     inkscape:showpageshadow="2"
     inkscape:pageopacity="0.0"
     inkscape:pagecheckerboard="0"
     inkscape:deskcolor="#d1d1d1"
     inkscape:document-units="px"
     inkscape:zoom="0.5616929"
     inkscape:cx="486.03071"
     inkscape:cy="572.37682"
     inkscape:window-width="1512"
     inkscape:window-height="916"
     inkscape:window-x="0"
     inkscape:window-y="38"
     inkscape:window-maximized="0"
     inkscape:current-layer="layer1"
     showguides="true" />
  <defs
     id="defs1" />
  <g
     inkscape:label="Layer 1"
     inkscape:groupmode="layer"
     id="layer1">
    <circle
       style="fill:#000000;stroke-width:1.77619;stroke-linecap:round;stroke-linejoin:round;paint-order:stroke markers fill"
       id="path1"
       cx="135.46666"
       cy="135.46666"
       r="135.46666" />
    <path
       style="fill:#a4c4d2;fill-opacity:0.951087;stroke:#000000;stroke-width:9.02571;stroke-linecap:round;stroke-linejoin:round;stroke-dasharray:none;stroke-opacity:1;paint-order:stroke markers fill"
       d="m 253.4466,153.60554 c 0,0 -33.9205,15.71796 -57.9643,21.14344 -24.04377,5.42547 -82.68162,4.75075 -82.68162,4.75075 0,0 3.62502,7.49419 9.85471,15.46519 4.371,5.59274 10.98892,14.28402 16.27913,19.13107 6.68666,6.12659 14.86414,12.07431 24.08748,19.83486 11.12861,9.36348 13.83719,12.34224 13.83719,12.34224 0,0 24.14124,-10.32268 30.19689,-14.8982 6.65821,-5.03078 12.67375,-10.96969 18.03078,-17.36838 5.20958,-6.2225 9.48229,-13.20512 13.54404,-20.23095 2.00102,-3.46021 6.48181,-12.16334 9.72297,-21.45557 3.15172,-9.03573 5.09273,-18.71445 5.09273,-18.71445 z"
       id="path3-6-7-5-0"
       sodipodi:nodetypes="czcssscssssc" />
    <path
       style="fill:#a4c4d2;fill-opacity:0.951087;stroke:#000000;stroke-width:9.02571;stroke-linecap:round;stroke-linejoin:round;stroke-dasharray:none;stroke-opacity:1;paint-order:stroke markers fill"
       d="m 214.82102,47.049264 c 0,0 -4.99351,37.050262 -13.3517,60.238176 -8.35817,23.18791 -40.46568,72.25891 -40.46568,72.25891 0,0 8.26764,0.97478 18.33816,0.009 7.06584,-0.67687 17.9524,-1.58133 24.88403,-3.43419 8.7614,-2.34187 18.17384,-6.03678 29.67707,-9.63837 13.87938,-4.34561 17.84737,-5.02696 17.84737,-5.02696 0,0 4.2821,-25.90402 3.6818,-33.47015 -0.66001,-8.31894 -2.43119,-16.58454 -4.94422,-24.54226 -2.44383,-7.738697 -6.03233,-15.096364 -9.77072,-22.299451 -1.84079,-3.548036 -6.7679,-12.006509 -12.8583,-19.736816 -5.92227,-7.516972 -13.03781,-14.35903 -13.03781,-14.35903 z"
       id="path3-6-7-5-0-6"
       sodipodi:nodetypes="czcssscssssc" />
    <path
       style="fill:#a4c4d2;fill-opacity:0.951087;stroke:#000000;stroke-width:9.02571;stroke-linecap:round;stroke-linejoin:round;stroke-dasharray:none;stroke-opacity:1;paint-order:stroke markers fill"
       d="m 97.170015,22.702171 c 0,0 29.870695,22.481028 46.005175,41.114814 16.13445,18.633755 43.22426,70.643365 43.22426,70.643365 0,0 4.89488,-6.73378 8.98034,-15.98883 2.86654,-6.4936 7.40362,-16.43093 9.17879,-23.382894 2.24376,-8.786977 3.62614,-18.803708 6.1126,-30.598354 3.00011,-14.231044 4.34712,-18.025031 4.34712,-18.025031 0,0 -20.49746,-16.407563 -27.38999,-19.585615 -7.57835,-3.494258 -15.65377,-5.993154 -23.8236,-7.694566 -7.94488,-1.654551 -16.11754,-2.12442 -24.22868,-2.387821 -3.99507,-0.12976 -13.78261,0.02888 -23.50423,1.558685 -9.45329,1.487717 -18.901785,4.346247 -18.901785,4.346247 z"
       id="path3-6-8"
       sodipodi:nodetypes="czcssscssssc" />
    <path
       style="fill:#a4c4d2;fill-opacity:0.951087;stroke:#000000;stroke-width:9.02571;stroke-linecap:round;stroke-linejoin:round;stroke-dasharray:none;stroke-opacity:1;paint-order:stroke markers fill"
       d="m 18.342302,112.52406 c 0,0 34.392497,-14.656448 58.593249,-19.332246 24.200719,-4.675798 82.789329,-2.179468 82.789329,-2.179468 0,0 -3.39042,-7.603196 -9.36947,-15.763941 -4.19509,-5.725848 -10.5398,-14.618548 -15.67687,-19.627665 -6.49307,-6.331325 -14.48172,-12.530331 -23.45953,-20.573651 -10.83232,-9.7048 -13.44704,-12.766242 -13.44704,-12.766242 0,0 -24.450282,9.567591 -30.645198,13.952761 -6.81134,4.821504 -13.008452,10.570639 -18.56173,16.799761 -5.400382,6.057635 -9.888024,12.904116 -14.16606,19.800358 -2.107111,3.396705 -6.856607,11.956086 -10.384943,21.143113 -3.430916,8.93346 -5.671737,18.54722 -5.671737,18.54722 z"
       id="path3-6"
       sodipodi:nodetypes="czcssscssssc" />
    <path
       style="fill:#a4c4d2;fill-opacity:0.951087;stroke:#000000;stroke-width:9.02571;stroke-linecap:round;stroke-linejoin:round;stroke-dasharray:none;stroke-opacity:1;paint-order:stroke markers fill"
       d="m 58.559991,225.77591 c 0,0 4.166418,-37.15234 12.005666,-60.5208 7.839249,-23.36846 38.845013,-73.142921 38.845013,-73.142921 0,0 -8.28728,-0.790232 -18.333821,0.398605 -7.049017,0.834126 -17.91269,1.981113 -24.801321,3.987979 -8.706981,2.536611 -18.034749,6.440327 -29.454857,10.297457 -13.779047,4.65389 -17.730905,5.42349 -17.730905,5.42349 0,0 -3.703636,25.99304 -2.934859,33.54392 0.845248,8.30221 2.800292,16.52622 5.490052,24.426 2.615707,7.68224 6.367285,14.95816 10.265335,22.07611 1.919949,3.50585 7.033825,11.85267 13.295019,19.44531 6.088381,7.38306 13.354678,14.06485 13.354678,14.06485 z"
       id="path3-6-7"
       sodipodi:nodetypes="czcssscssssc" />
    <path
       style="fill:#a4c4d2;fill-opacity:0.951087;stroke:#000000;stroke-width:9.02571;stroke-linecap:round;stroke-linejoin:round;stroke-dasharray:none;stroke-opacity:1;paint-order:stroke markers fill"
       d="m 177.48621,246.82113 c 0,0 -30.4577,-21.67915 -47.08176,-39.87747 -5.73335,-6.27628 -15.75122,-15.04815 -22.64758,-25.73212 -13.099943,-20.29464 -22.439114,-43.73738 -22.439114,-43.73738 0,0 -4.714188,6.86152 -8.552189,16.22182 -2.692911,6.56756 -6.964236,16.62195 -8.553995,23.61862 -2.009484,8.84354 -3.125031,18.89349 -5.297158,30.75005 -2.620765,14.30568 -3.866493,18.13421 -3.866493,18.13421 0,0 20.926375,15.85697 27.900961,18.85064 7.668483,3.29158 15.807478,5.57497 24.019658,7.05862 7.98607,1.44278 16.16832,1.69523 24.28361,1.74302 3.99707,0.024 13.77696,-0.3951 23.45447,-2.18291 9.41042,-1.73844 18.77959,-4.8471 18.77959,-4.8471 z"
       id="path3-6-7-5"
       sodipodi:nodetypes="csscssscssssc" />
  </g>
</svg>
